<?xml version="1.0" standalone="no"?>
<!DOCTYPE svg PUBLIC "-//W3C//DTD SVG 20010904//EN"
 "http://www.w3.org/TR/2001/REC-SVG-20010904/DTD/svg10.dtd">
<svg version="1.0" xmlns="http://www.w3.org/2000/svg"
 width="980.000000pt" height="902.000000pt" viewBox="0 0 980.000000 902.000000"
 preserveAspectRatio="xMidYMid meet">

<g transform="translate(0.000000,902.000000) scale(0.100000,-0.100000)"
fill="#000000" stroke="none">
<path d="M8275 9009 c-97 -53 -134 -104 -249 -337 -91 -187 -141 -309 -157
-388 -11 -53 -10 -64 6 -98 12 -24 36 -50 64 -67 60 -39 112 -39 172 0 57 36
75 57 143 163 31 48 67 95 80 104 23 14 28 14 53 1 130 -70 127 -69 184 -65
93 7 152 70 152 163 0 123 -319 536 -413 535 -8 0 -24 -6 -35 -11z"/>
<path d="M8955 8276 c-5 -3 -31 -7 -57 -11 -111 -15 -183 -152 -128 -242 31
-52 89 -75 209 -83 137 -10 141 -15 121 -135 -28 -158 -7 -261 91 -457 28 -57
57 -119 65 -139 12 -36 12 -37 -12 -43 -13 -4 -88 1 -166 10 -162 18 -257 15
-308 -11 -19 -9 -78 -46 -130 -81 -52 -34 -103 -64 -113 -66 -15 -2 -25 14
-52 90 -57 160 -103 215 -189 229 -50 8 -81 -3 -126 -43 -31 -28 -41 -46 -50
-91 -41 -197 123 -665 255 -727 33 -16 37 -16 81 3 66 29 161 95 327 225 l145
113 239 -53 c287 -65 450 -90 516 -80 36 5 56 16 82 43 80 83 62 154 -178 680
l-114 251 85 129 c208 314 208 417 2 471 -39 10 -133 15 -320 18 -146 2 -269
2 -275 0z"/>
<path d="M6413 8058 c-73 -46 -185 -144 -433 -377 -123 -116 -228 -211 -232
-211 -5 0 -63 28 -131 61 -371 187 -782 302 -1292 361 -171 20 -698 17 -855
-5 -678 -95 -1278 -325 -1800 -690 -624 -436 -1101 -1028 -1404 -1740 -113
-265 -225 -641 -246 -827 -17 -143 -25 -1002 -11 -1206 17 -258 37 -351 153
-684 180 -519 311 -769 615 -1172 386 -510 847 -895 1402 -1167 413 -203 807
-317 1301 -377 203 -25 656 -25 865 0 785 94 1471 377 2065 852 172 137 445
410 584 584 189 237 328 455 467 731 191 382 304 703 353 999 35 212 41 325
41 770 0 365 -3 470 -18 585 -42 341 -108 563 -326 1108 l-71 178 199 207
c230 238 340 366 377 437 l27 50 -23 45 c-37 74 -125 205 -233 347 -257 338
-277 387 -187 452 56 40 233 116 332 142 172 45 390 36 608 -25 162 -46 195
-44 258 17 122 116 64 250 -146 344 -118 52 -234 75 -415 80 -197 6 -277 -4
-422 -54 -144 -50 -248 -101 -426 -208 -86 -52 -163 -97 -171 -100 -10 -4 -70
39 -173 126 -257 214 -471 365 -552 388 -27 8 -39 5 -80 -21z m172 -483 c61
-25 166 -115 388 -335 364 -358 617 -640 617 -686 0 -12 -19 -50 -41 -84 -50
-74 -252 -286 -282 -296 -17 -5 -34 7 -92 67 -38 41 -119 135 -180 209 -165
204 -435 469 -667 654 -109 87 -198 162 -198 167 0 6 59 70 131 144 177 181
221 203 324 160z m-2475 -55 c533 -30 908 -127 1375 -355 383 -187 674 -394
971 -690 473 -473 784 -1030 953 -1710 75 -302 76 -308 76 -720 -1 -288 -5
-403 -19 -520 -82 -703 -302 -1239 -722 -1765 -128 -160 -417 -452 -564 -572
-426 -344 -907 -584 -1438 -717 -285 -71 -526 -101 -817 -101 -1466 0 -2790
914 -3330 2298 -160 410 -238 834 -238 1287 1 251 10 369 49 605 152 919 658
1732 1431 2298 192 141 488 306 738 410 498 209 959 284 1535 252z"/>
<path d="M3780 6943 c-94 -7 -349 -45 -440 -65 -538 -115 -1096 -404 -1436
-743 -128 -128 -162 -184 -145 -238 14 -43 71 -109 117 -138 69 -42 110 -24
317 143 480 387 1041 622 1569 657 79 6 160 15 180 21 55 16 129 70 150 110
75 143 -83 272 -312 253z"/>
</g>
</svg>
