<?xml version="1.0" encoding="utf-8"?>
<!-- Svg Vector Icons : http://www.onlinewebfonts.com/icon -->
<!DOCTYPE svg PUBLIC "-//W3C//DTD SVG 1.1//EN" "http://www.w3.org/Graphics/SVG/1.1/DTD/svg11.dtd">
<svg version="1.1" xmlns="http://www.w3.org/2000/svg" xmlns:xlink="http://www.w3.org/1999/xlink" x="0px" y="0px" viewBox="0 0 1000 1000" enable-background="new 0 0 1000 1000" xml:space="preserve">
<metadata> Svg Vector Icons : http://www.onlinewebfonts.com/icon </metadata>
<g><g transform="translate(0.000000,434.000000) scale(0.100000,-0.100000)"><path d="M8817.9,3510.2c-15.4-5.8-231.6-175.6-482.4-376.3c-248.9-198.8-459.3-362.8-465.1-362.8c-5.8,0-100.4,125.4-208.4,279.8c-137,194.9-212.3,283.7-245.1,291.4c-75.3,19.3-142.8-7.7-164-65.6c-21.2-54-94.6-779.6-94.6-932.1c0-104.2,40.5-152.5,131.2-152.5c65.6,0,113.9,38.6,129.3,102.3c5.8,23.2,21.2,154.4,34.7,291.4l23.2,248.9l123.5-177.5c133.1-191,179.5-233.5,247-233.5c27,0,181.4,110,405.3,289.5c198.8,158.2,362.8,285.6,366.7,283.7c1.9-3.9-34.7-148.6-83-322.3c-50.2-179.5-83-335.8-75.3-360.9c5.8-23.2,30.9-57.9,57.9-75.3c42.5-28.9,81.1-28.9,385.9-7.7c187.2,13.5,343.5,21.2,347.4,15.4c3.9-3.9-138.9-110-318.4-233.5c-337.7-233.5-366.7-264.4-339.6-368.6c5.8-27,144.7-164,333.8-331.9c204.6-183.3,310.7-289.5,291.4-293.3c-17.4-3.9-194.9,17.4-395.6,44.4c-594.4,83-577,88.8-607.9-233.5c-11.6-115.8-23.2-212.3-25.1-216.1c-1.9-1.9-90.7,83-196.8,189.1c-177.5,181.4-196.8,194.9-248.9,181.4c-81.1-17.4-111.9-56-111.9-131.2c0-71.4-1.9-69.5,418.8-507.5c92.6-98.4,191.1-185.2,218.1-191c119.7-30.9,154.4,38.6,193,380.2c17.4,152.5,32.8,281.7,38.6,285.6c3.9,3.9,276-29,604-73.3c330-46.3,615.6-77.2,634.9-71.4c69.5,23.2,106.1,81.1,92.6,150.5c-9.6,52.1-86.8,129.3-445.8,447.7c-239.3,210.3-434.2,389.8-434.2,399.5c0,7.7,196.8,152.5,438.1,318.4c239.3,167.9,451.6,322.3,472.8,343.5c54,57.9,46.3,158.2-15.4,198.8c-48.2,30.9-79.1,30.9-553.8,0c-276-17.4-505.6-28.9-509.5-25.1c-3.9,3.9,46.3,196.8,110,430.3c63.7,233.5,115.8,440,115.8,457.4c0,17.4-21.2,54-48.2,79.1C8918.3,3521.8,8875.8,3531.4,8817.9,3510.2z"/><path d="M6212.8,2609c-160.2-44.4-198.8-79.1-376.3-328.1c-94.6-133.1-185.3-247-202.6-252.8c-15.4-3.9-731.4-191-1592.1-414.9c-858.7-225.8-1588.2-418.8-1621-432.3c-121.6-52.1-299.1-252.8-299.1-341.6c0-25.1-30.9-32.8-177.5-44.4c-426.5-30.9-849.1-196.8-976.5-386c-88.8-131.2-79.1-314.6,21.2-430.3c110-125.4,208.4-144.7,492.1-90.7c123.5,23.1,175.6,25.1,210.4,9.6l46.3-21.2l-57.9-83c-113.9-162.1-380.2-393.7-548.1-478.6c-272.1-133.2-384-457.4-291.4-847.2c15.4-69.5,25.1-142.8,19.3-166c-5.8-21.2-106.1-187.2-225.8-366.7c-322.3-490.2-443.8-775.8-511.4-1181c-40.5-241.2-25.1-573.1,38.6-854.9c81.1-355.1,218.1-563.5,447.7-675.4c194.9-96.5,322.3-88.8,847.2,48.2c233.5,61.7,528.8,138.9,654.2,169.8c127.4,30.9,276,77.2,331.9,104.2c333.8,158.2,509.5,526.9,482.4,1013.1c-13.5,235.4-27,316.5-121.6,741c-77.2,347.4-94.6,606-44.4,652.3c15.4,15.4,75.3,42.5,131.2,61.8c127.4,40.5,204.6,106.1,262.5,218.1l44.4,86.8L3266-1787c164-245.1,416.8-428.4,683.1-490.2c285.6-67.5,770-3.9,1044,135.1c432.3,220,725.6,675.4,750.7,1173.3c11.6,204.6,9.6,208.4-110,679.3c-67.5,262.5-117.7,478.6-113.9,482.4c3.9,5.8,358.9,100.4,789.3,212.3c430.3,113.9,806.6,214.2,835.6,225.8c69.5,29,129.3,106.1,129.3,167.9c0,50.2-281.7,1159.8-339.6,1339.3c-40.5,127.4-111.9,175.6-243.2,166c-94.6-5.8-98.4-3.9-115.8,52.1c-50.2,166-77.2,216.1-129.3,247C6382.6,2641.8,6334.3,2641.8,6212.8,2609z M6340.1,1887.3c42.5-38.6,69.5-44.4,158.2-38.6l106.1,5.8l113.9-441.9c63.7-243.2,108.1-447.7,98.4-455.4c-7.7-7.7-368.6-106.1-800.9-220c-432.3-111.9-806.6-214.2-833.7-225.8c-25.1-11.6-61.8-50.2-81.1-86.8c-34.7-63.7-34.7-67.5,28.9-330c36.7-146.7,69.5-279.8,75.3-297.2c5.8-27-13.5-34.7-96.5-46.3c-360.9-46.3-1100-312.6-1528.4-550c-231.6-127.4-486.3-328.1-526.8-413l-30.9-65.6l-125.4,106.1c-252.8,214.2-654.2,436.1-935.9,517.2l-110,32.8l77.2,86.8c98.4,113.9,212.3,339.6,212.3,424.5c0,127.4-117.7,283.7-274,364.7c-34.7,17.4-127.4,38.6-208.4,44.4l-144.7,13.5l173.7,40.5c102.3,25.1,279.8,48.2,432.3,56c243.2,13.5,262.5,17.4,316.5,63.7c48.2,44.4,56,65.6,59.8,162.1c1.9,81.1,13.5,119.7,40.5,148.6c29,27,474.7,150.5,1669.3,463.1c920.5,241.2,1651.9,441.9,1678.9,461.2c27,19.3,111.9,123.5,191.1,231.6l142.8,196.8l34.7-102.3C6272.6,1978,6311.2,1912.3,6340.1,1887.3z M5328.9-696.7c29-71.4,27-339.6-1.9-449.6c-61.8-225.8-221.9-451.6-409.1-577c-187.2-125.4-387.9-181.4-654.2-183.3c-210.3-2-227.7,1.9-347.4,57.9c-142.8,67.5-262.5,181.4-357,335.8c-100.4,166-98.4,169.8,77.2,285.6l154.4,102.3l27-44.4c15.4-25.1,84.9-102.3,154.4-171.7c169.8-167.9,343.5-254.7,513.3-256.7c214.2-3.9,235.4,90.7,50.2,221.9c-138.9,100.3-254.7,212.3-314.6,304.9c-29,48.2-54,94.5-54,102.3c0,19.3,15.4,25.1,337.7,144.7c310.7,113.9,555.8,177.5,690.9,179.5C5298-644.6,5307.7-648.5,5328.9-696.7z M1870.8-1044.1c196.8-57.9,418.8-169.8,615.6-310.7c152.5-108.1,272.1-212.3,272.1-237.4c0-9.6-52.1-38.6-113.9-65.6c-135.1-61.8-196.8-121.6-256.7-250.9c-38.6-84.9-44.4-123.5-42.5-337.7c1.9-212.3,11.6-283.7,86.8-598.2c77.2-335.8,83-374.4,83-646.5c1.9-274,0-295.3-48.2-397.5c-86.8-185.3-110-194.9-843.3-387.9c-358.9-92.6-685.1-167.9-729.5-169.8c-235.4-1.9-393.7,341.6-393.7,858.7c0,482.4,86.8,725.6,465.1,1304.5c115.8,177.5,227.7,358.9,248.9,405.3c46.3,104.2,50.2,250.9,7.7,451.6c-40.5,194.9-25.1,301.1,52.1,364.7c52.1,44.4,90.7,57.9,229.6,75.2C1589-976.5,1702.9-993.9,1870.8-1044.1z"/><path d="M3565.1,727.5c-262.4-69.5-480.5-131.2-486.3-137c-9.6-9.6,54-285.6,69.5-299.1c9.6-9.6,988,252.8,1034.3,277.9c44.4,23.2,81.1,92.6,81.1,148.6c0,52.1-108.1,142.8-167.9,140.9C4066.8,856.8,3827.5,798.9,3565.1,727.5z"/><path d="M4225.1,247c-56-9.6-988-252.8-997.7-260.5c-5.8-7.7,69.5-287.5,81.1-299.1c3.9-3.9,785.4,194.9,1018.9,260.5c38.6,11.6,90.7,100.3,90.7,156.3c0,48.2-65.6,131.2-110,142.8C4288.8,250.8,4252.1,250.8,4225.1,247z"/><path d="M1726-1435.8c-245.1-52.1-304.9-391.7-94.6-523c241.2-148.6,530.7,98.4,416.8,355.1C1990.4-1474.4,1861.1-1406.8,1726-1435.8z"/><path d="M7974.6,2161.3c-110-100.3-206.5-181.4-214.2-181.4c-9.6,0-50.2,73.3-90.7,164c-40.5,90.7-79.1,164-84.9,164c-7.7,0-25.1-77.2-38.6-173.7c-13.5-94.6-32.8-173.7-40.5-173.7c-9.6,0-63.7,17.4-117.7,38.6c-54.1,23.2-102.3,36.7-106.1,32.8c-5.8-5.8,210.3-706.3,254.7-824c7.7-19.3,27,0,61.8,61.8c28.9,52.1,56,90.7,61.8,90.7c5.8-1.9,79.1-77.2,164-169.8c84.9-92.6,156.3-167.9,158.2-166c3.9,1.9-21.2,96.5-54,210.3c-32.8,113.9-54,212.3-48.2,218.1c5.8,5.8,146.7-15.4,314.6-48.2c167.9-32.8,306.8-56,308.8-54c3.9,1.9-104.2,81.1-237.4,173.7l-243.2,171.7l121.6,65.6c67.5,36.7,198.8,106.1,291.4,154.4c94.6,50.2,167.9,92.6,164,94.6c-1.9,3.9-139-23.2-303-59.8c-164-34.7-301-61.8-304.9-59.8c-1.9,3.9,40.5,102.3,94.6,221.9c54,119.6,94.6,220,92.6,223.9C8175.3,2338.8,8082.7,2261.6,7974.6,2161.3z"/></g></g>
</svg>