<?xml version="1.0" encoding="utf-8"?>
<!-- Svg Vector Icons : http://www.onlinewebfonts.com/icon -->
<!DOCTYPE svg PUBLIC "-//W3C//DTD SVG 1.1//EN" "http://www.w3.org/Graphics/SVG/1.1/DTD/svg11.dtd">
<svg version="1.1" xmlns="http://www.w3.org/2000/svg" xmlns:xlink="http://www.w3.org/1999/xlink" x="0px" y="0px" viewBox="0 0 1000 1000" enable-background="new 0 0 1000 1000" xml:space="preserve">
<metadata> Svg Vector Icons : http://www.onlinewebfonts.com/icon </metadata>
<g><g transform="translate(0.000000,511.000000) scale(0.100000,-0.100000)"><path d="M9329.8,4864.4c-109.8-79.2-311.5-224.7-444.3-326.9C8310.9,4106,7846.1,3843,7521.8,3771.5c-104.7-23-206.8-56.2-227.3-71.5c-20.4-17.9-224.7-311.6-452-656.3c-1062.3-1598.6-1685.4-2403-2477-3194.6c-475-475-735.4-697.2-1115.9-950c-232.4-153.2-237.5-155.8-291.1-316.7c-51.1-155.8-58.7-163.4-232.4-265.6c-247.7-145.6-355-250.3-520.9-503.1c-158.3-237.5-143-237.5-265.6-2.6c-38.3,76.6-89.4,155.8-112.4,173.7c-61.3,51.1-194.1,23-252.8-51.1c-66.4-92-46-173.7,107.2-429l122.6-201.7l-582.2-582.2l-582.2-582.2l-74.1,69c-135.4,130.2-337.1,63.8-337.1-114.9c0-69,51.1-132.8,390.7-469.8c421.3-421.4,482.6-462.2,600.1-375.4c74.1,56.2,107.3,196.6,58.7,245.2c-20.4,20.4,135.3,191.5,561.8,620.5l592.4,592.4l199.2-104.7c227.3-117.5,306.4-114.9,377.9,12.8c58.7,104.7,15.3,199.2-132.8,275.8c-66.4,35.8-120,71.5-120,79.2c0,10.2,84.3,71.5,189,135.4c222.2,137.9,380.5,306.4,495.4,520.9c76.6,145.6,91.9,155.8,232.4,204.3c135.4,45.9,189,89.4,592.5,495.4c564.4,564.4,914.2,868.2,1925.4,1675.2c1075.1,858,1213,975.5,1631.8,1384.1c886.1,863.1,1401.9,1690.5,1790.1,2867.7c181.3,551.6,191.5,607.8,107.3,692c-38.3,35.7-94.5,66.4-127.7,66.4C9559.6,5010,9439.6,4946.2,9329.8,4864.4z"/></g></g>
</svg>